<?xml version="1.0" encoding="UTF-8"?>
<svg version="1.1" xmlns="http://www.w3.org/2000/svg" width="935" height="535">
<path d="M0 0 C1.62345462 0.54628094 3.24842007 1.08809638 4.875 1.625 C5.55304688 1.86476563 6.23109375 2.10453125 6.9296875 2.3515625 C11.82521443 3.88487848 16.71482231 4.26493221 21.8125 4.5625 C22.85180664 4.62727539 22.85180664 4.62727539 23.91210938 4.69335938 C25.60788686 4.79861453 27.30392052 4.89972863 29 5 C29 5.66 29 6.32 29 7 C27.50390625 8.21875 27.50390625 8.21875 25.5625 9.5 C22.77468153 11.2865363 22.77468153 11.2865363 21 14 C20.87808779 16.37924562 20.81441706 18.73123317 20.79467773 21.11181641 C20.78477814 21.84362625 20.77487854 22.5754361 20.76467896 23.329422 C20.73303801 25.75343568 20.70829634 28.17746898 20.68359375 30.6015625 C20.66302646 32.28022782 20.64203005 33.95888793 20.62062073 35.63754272 C20.56537682 40.05981231 20.51597779 44.48212881 20.46777344 48.90447998 C20.41757533 53.41552922 20.36188045 57.92651018 20.30664062 62.4375 C20.1990307 71.29160836 20.09759203 80.14577596 20 89 C16.57907981 90.14030673 13.60008247 90.33011763 10 90.5625 C8.7625 90.64628906 7.525 90.73007812 6.25 90.81640625 C2.90880831 90.99516184 -0.41984383 91.01880911 -3.765625 91.01147461 C-4.74821289 91.00981796 -5.73080078 91.00816132 -6.74316406 91.00645447 C-7.86029785 91.00325951 -7.86029785 91.00325951 -9 91 C-9.00586624 90.22992111 -9.01173248 89.45984222 -9.01777649 88.66642761 C-9.07566036 81.41208339 -9.14771156 74.15808434 -9.23571491 66.90404797 C-9.28045871 63.17457931 -9.31970559 59.44522089 -9.34643555 55.71557617 C-9.37242913 52.11679448 -9.41280248 48.51843614 -9.46318626 44.91991615 C-9.47988191 43.54644343 -9.4913794 42.17289743 -9.49761391 40.79933739 C-9.50722475 38.8767681 -9.53696665 36.95433123 -9.56762695 35.03198242 C-9.58428154 33.38984016 -9.58428154 33.38984016 -9.60127258 31.71452332 C-9.79392343 29.00397495 -9.79392343 29.00397495 -11.28507996 27.14790344 C-14.32743276 25.11146608 -17.90335622 25.57158725 -21.4375 25.625 C-22.20126953 25.61339844 -22.96503906 25.60179687 -23.75195312 25.58984375 C-24.49251953 25.59371094 -25.23308594 25.59757812 -25.99609375 25.6015625 C-26.66825928 25.60494629 -27.3404248 25.60833008 -28.03295898 25.61181641 C-30.81089508 26.16002522 -31.99960293 26.97079106 -34 29 C-34.41405821 31.60498027 -34.56427873 33.79793638 -34.54589844 36.4074707 C-34.55622762 37.1697913 -34.5665568 37.93211189 -34.57719898 38.71753311 C-34.60699798 41.28715596 -34.60811781 43.85599711 -34.609375 46.42578125 C-34.62458241 48.27426037 -34.64146632 50.12272635 -34.65989685 51.97117615 C-34.70489253 57.02641805 -34.72440218 62.08147647 -34.73882675 67.1368866 C-34.7537346 71.37393234 -34.78241932 75.61083677 -34.81127834 79.84780693 C-34.89678269 92.44431358 -34.94234439 105.04077925 -34.97784424 117.63751221 C-34.99944411 125.18008279 -35.03052114 132.72260205 -35.06201172 140.26513672 C-35.11886839 154.1952173 -35.15479191 168.1252753 -35.17988586 182.05544662 C-35.18751173 185.75569258 -35.19802303 189.45592137 -35.20910645 193.15615845 C-35.22567988 198.99084948 -35.23168467 204.82546019 -35.22944832 210.66017342 C-35.23012286 212.81626831 -35.23418728 214.97236509 -35.24181938 217.12844658 C-35.25155902 220.07627936 -35.24888621 223.0238429 -35.24291992 225.97167969 C-35.24854321 226.83526753 -35.25416649 227.69885538 -35.25996017 228.58861256 C-35.25576191 229.38072478 -35.25156364 230.17283701 -35.24723816 230.98895264 C-35.24778293 231.67175671 -35.24832769 232.35456078 -35.24888897 233.05805588 C-34.9538802 235.3598475 -34.13146553 236.98965188 -33 239 C-26.1936263 239.39267541 -19.30730609 238.73783805 -13 236 C-9.60193541 231.776688 -9.58809818 227.7368219 -9.65942383 222.5378418 C-9.65898575 221.6983046 -9.65854767 220.8587674 -9.65809631 219.99378967 C-9.66018039 217.2286932 -9.68349334 214.46420884 -9.70703125 211.69921875 C-9.71262856 209.77822704 -9.71689802 207.85723105 -9.71989441 205.93623352 C-9.73133252 200.88748286 -9.7607909 195.83899233 -9.79400635 190.79034424 C-9.82472945 185.63565591 -9.83840454 180.48092543 -9.85351562 175.32617188 C-9.88566152 165.21733382 -9.93684546 155.10868856 -10 145 C-11.41791408 145.45445964 -12.83428046 145.91374944 -14.25 146.375 C-15.03890625 146.63023437 -15.8278125 146.88546875 -16.640625 147.1484375 C-19.32716625 148.06608073 -19.32716625 148.06608073 -23 150 C-23 136.47 -23 122.94 -23 109 C-22.34 109 -21.68 109 -21 109 C-19.64721885 110.98689731 -18.31431695 112.98745218 -17 115 C-11.20152001 117.89924 -2.50420333 115.93090239 3.8125 115.375 C4.54154541 115.33012451 5.27059082 115.28524902 6.02172852 115.23901367 C10.0457727 114.83036146 12.3690313 114.08274006 14.94921875 111.0390625 C16.93519397 108.23761538 16.93519397 108.23761538 18 106 C18.66 106 19.32 106 20 106 C19.99723462 106.69814221 19.99446924 107.39628443 19.99162006 108.11558247 C19.92541181 125.09075161 19.8757446 142.06588803 19.84456348 159.04115772 C19.82908433 167.25022323 19.80797489 175.45920264 19.77368164 183.66821289 C19.74381125 190.82189337 19.72443262 197.9755115 19.71773452 205.12925261 C19.71381822 208.91830167 19.70459288 212.70717235 19.68280983 216.49616432 C19.66248181 220.0608697 19.65615863 223.62532281 19.66067696 227.19008064 C19.65945516 229.1254205 19.64329374 231.06073275 19.6267395 232.9960022 C19.63086349 234.14445114 19.63498749 235.29290009 19.63923645 236.47615051 C19.63647107 237.4762959 19.63370569 238.47644129 19.63085651 239.50689411 C20.06492987 242.43852062 20.66285062 243.24333968 23 245 C24.97620986 246.04622875 26.9737129 247.05439935 29 248 C25.67371834 250.21752111 23.19749929 250.74148263 19.3125 251.625 C12.67133804 253.25387247 6.96883907 255.81405907 0.9375 258.9909668 C-8.31454463 263.82221216 -18.3644768 268.11840672 -28.94140625 268.1328125 C-30.31135742 268.13474609 -30.31135742 268.13474609 -31.70898438 268.13671875 C-32.65064453 268.13285156 -33.59230469 268.12898438 -34.5625 268.125 C-35.50802734 268.12886719 -36.45355469 268.13273437 -37.42773438 268.13671875 C-38.33974609 268.13542969 -39.25175781 268.13414062 -40.19140625 268.1328125 C-41.43192749 268.13112061 -41.43192749 268.13112061 -42.69750977 268.12939453 C-44.93305076 268.00376239 -46.84495848 267.57882296 -49 267 C-57.02840951 266.58890674 -65.01394922 267.20705879 -73 268 C-72.38511719 267.29423828 -72.38511719 267.29423828 -71.7578125 266.57421875 C-70.94957031 265.64029297 -70.94957031 265.64029297 -70.125 264.6875 C-69.59132813 264.07261719 -69.05765625 263.45773437 -68.5078125 262.82421875 C-65.93989175 259.7174338 -64.75064889 257.82844895 -64.73714447 253.83418465 C-64.72562104 252.55492739 -64.72562104 252.55492739 -64.7138648 251.24982655 C-64.71559777 250.31258429 -64.71733073 249.37534203 -64.71911621 248.40969849 C-64.71317397 247.41427626 -64.70723172 246.41885404 -64.70110941 245.39326751 C-64.68370166 242.04225538 -64.68071613 238.69138586 -64.67773438 235.34033203 C-64.6684805 232.94408867 -64.65843152 230.54784827 -64.64764404 228.15161133 C-64.62137037 221.63100346 -64.6084284 215.11042533 -64.59962273 208.58977747 C-64.59409837 204.51906341 -64.58562381 200.44835885 -64.57661438 196.37765121 C-64.55223028 185.10901295 -64.53163066 173.8403823 -64.5248642 162.57171822 C-64.52442506 161.85048424 -64.52398593 161.12925027 -64.52353349 160.38616072 C-64.52309694 159.66319501 -64.52266038 158.9402293 -64.5222106 158.19535553 C-64.52132366 156.73033468 -64.52043054 155.26531382 -64.51953125 153.80029297 C-64.51908839 153.07359102 -64.51864553 152.34688907 -64.51818925 151.59816585 C-64.51029103 139.81960892 -64.47537588 128.04129928 -64.42881221 116.2628379 C-64.38140176 104.17270622 -64.35646131 92.08269869 -64.35412836 79.99247253 C-64.35229399 73.2030979 -64.34076842 66.41404559 -64.30448914 59.62475967 C-64.27049491 53.2405838 -64.26716906 46.8568569 -64.28476715 40.47261047 C-64.28631306 38.12680805 -64.27755457 35.78097332 -64.25785065 33.43525314 C-64.23256071 30.23752075 -64.24407849 27.04198362 -64.26501465 23.8442688 C-64.24890184 22.91148798 -64.23278903 21.97870716 -64.21618795 21.01766026 C-64.22198474 16.3422223 -64.22198474 16.3422223 -66.31451893 12.31922507 C-68.37922572 10.55582255 -70.5747954 9.2126023 -73 8 C-73 7.34 -73 6.68 -73 6 C-71.88882813 5.89042969 -70.77765625 5.78085937 -69.6328125 5.66796875 C-60.40212164 4.70583235 -51.95538421 3.37017446 -43.28125 -0.08203125 C-29.86476246 -4.97489977 -13.37593462 -5.1231916 0 0 Z " fill="#000000" transform="translate(73,267)"/>
<path d="M0 0 C0.81210937 0.40089844 1.62421875 0.80179687 2.4609375 1.21484375 C8.85829922 4.69605793 13.90501441 9.32842589 19.140625 14.31640625 C25.02046685 19.94211907 25.02046685 19.94211907 32 24 C28 28 28 28 25.88952637 29.63172913 C23.22393015 32.9727007 23.45739174 36.04982057 23.51757812 40.14233398 C23.51170937 41.37009804 23.51170937 41.37009804 23.50572205 42.62266541 C23.49974789 44.39924284 23.50291558 46.1758692 23.5141449 47.95242119 C23.53142861 50.77526491 23.52388399 53.59708605 23.5098877 56.41993713 C23.48025001 63.43807352 23.49335792 70.45601533 23.50506592 77.47418213 C23.51331735 83.39452341 23.50511674 89.31441877 23.47593689 95.23469734 C23.46890934 97.99598584 23.48544405 100.75646064 23.50305176 103.51768494 C23.50233213 122.57308663 23.50233213 122.57308663 19 131 C16.86120605 132.33616638 16.86120605 132.33616638 15 133 C15.433125 133.680625 15.86625 134.36125 16.3125 135.0625 C21.63421692 144.32622945 23.30725451 152.84502198 23.20776367 163.328125 C23.20596603 164.83215881 23.20596603 164.83215881 23.20413208 166.36657715 C23.2009952 168.53162573 23.19371374 170.6966715 23.1826992 172.86169434 C23.1677846 176.29235831 23.16946352 179.7226345 23.17634583 183.15332031 C23.19513316 192.90312028 23.20155715 202.65261508 23.15454102 212.40234375 C23.12692547 218.37703776 23.13328826 224.35088176 23.16155434 230.32556152 C23.16580807 232.59648845 23.15736735 234.86747694 23.1358242 237.13830566 C23.10689851 240.31711919 23.12128639 243.49308101 23.14526367 246.671875 C23.11682625 248.06859436 23.11682625 248.06859436 23.08781433 249.49353027 C23.21409447 256.78452925 25.94351798 259.99615112 31 265 C31.33 265.66 31.66 266.32 32 267 C23.45165544 266.37597085 15.20614132 264.78107578 6.82910156 263.04370117 C4.47902253 262.55816597 2.12644019 262.08637168 -0.2265625 261.61523438 C-1.72412714 261.30811366 -3.22152948 261.00020022 -4.71875 260.69140625 C-5.77177307 260.48192101 -5.77177307 260.48192101 -6.84606934 260.26820374 C-11.77075189 259.22924811 -11.77075189 259.22924811 -14 257 C-12.20963542 256.0234375 -10.41927083 255.046875 -8.62890625 254.0703125 C-6.83381685 253.08589976 -6.83381685 253.08589976 -6 251 C-5.89074533 247.94479826 -5.84265716 244.91204536 -5.83886719 241.85620117 C-5.83390228 240.90809067 -5.82893738 239.95998016 -5.82382202 238.98313904 C-5.80917823 235.83640831 -5.80239448 232.689728 -5.796875 229.54296875 C-5.79112509 227.36062111 -5.78536734 225.1782735 -5.77960205 222.9959259 C-5.76908556 218.4151689 -5.76324723 213.83442949 -5.75976562 209.25366211 C-5.7542815 203.38229734 -5.73025781 197.51116456 -5.70179367 191.63987255 C-5.68317445 187.1300234 -5.67796205 182.62023018 -5.67642975 178.11034584 C-5.67340075 175.94579107 -5.66536396 173.78123733 -5.65224457 171.6167202 C-5.63520033 168.58829462 -5.63706056 165.56043644 -5.64355469 162.53198242 C-5.6343399 161.63672852 -5.62512512 160.74147461 -5.6156311 159.8190918 C-5.64755754 155.06912529 -5.86531411 151.83301605 -9 148 C-12.57134995 146.04210257 -16.03588118 145.59615686 -20.0625 145.25 C-21.59583984 145.10304688 -21.59583984 145.10304688 -23.16015625 144.953125 C-26.10808823 145.00178412 -27.57617629 145.36545838 -30 147 C-31.69784083 150.39568167 -31.19342607 154.26653492 -31.22460938 158.00439453 C-31.23599945 158.93793259 -31.24738953 159.87147064 -31.25912476 160.83329773 C-31.36982069 170.60654638 -31.41721659 180.3805533 -31.45996094 190.15429688 C-31.48222927 194.79106694 -31.52398647 199.42703129 -31.58300781 204.06347656 C-31.65413222 209.66149561 -31.69079893 215.25875676 -31.70307922 220.85720444 C-31.71347462 222.98865856 -31.73588639 225.12009001 -31.77067566 227.25128555 C-31.81695732 230.24149726 -31.81887316 233.2287469 -31.81054688 236.21923828 C-31.8459407 237.53191429 -31.8459407 237.53191429 -31.88204956 238.87110901 C-31.79891425 245.06264739 -29.95897872 248.03811701 -25.60041046 252.3985424 C-24 254 -24 254 -23 256 C-31.32557898 255.33164331 -39.48080982 253.96812351 -47.6887207 252.47094727 C-49.95582939 252.05917082 -52.22483843 251.65925457 -54.49414062 251.25976562 C-55.94283759 250.99811049 -57.39141025 250.73576592 -58.83984375 250.47265625 C-59.51482407 250.3548732 -60.18980438 250.23709015 -60.88523865 250.11573792 C-64.19325614 249.50095201 -66.14991433 248.90005711 -69 247 C-67.20963542 246.0234375 -65.41927083 245.046875 -63.62890625 244.0703125 C-61.83381685 243.08589976 -61.83381685 243.08589976 -61 241 C-60.90868174 239.2260261 -60.88247915 237.44855944 -60.88647461 235.67224121 C-60.88655518 234.53706055 -60.88663574 233.40187988 -60.88671875 232.2322998 C-60.891875 230.97679321 -60.89703125 229.72128662 -60.90234375 228.42773438 C-60.90417926 227.09204156 -60.90555067 225.75634804 -60.90649414 224.4206543 C-60.91030032 220.75261624 -60.92019921 217.08461636 -60.93113327 213.41659355 C-60.94188902 209.49245629 -60.94752066 205.5683122 -60.95336914 201.64416504 C-60.9558441 200.01555632 -60.95833142 198.38694761 -60.96083069 196.75833893 C-60.96208513 195.93928731 -60.96333958 195.12023569 -60.96463203 194.27636433 C-60.96880165 191.73413531 -60.9737017 189.19190852 -60.97874451 186.64968109 C-61.00163848 174.57365098 -60.99295878 162.49789511 -60.96875 150.421875 C-60.93771398 134.73976604 -60.9408039 119.05800187 -60.97666931 103.37590027 C-60.99610892 94.43028908 -60.99924745 85.48514394 -60.96923828 76.53955078 C-60.9424029 68.52411735 -60.94338103 60.50925869 -60.97825909 52.49384737 C-60.99553462 48.30918756 -60.99939718 44.12557136 -60.96896362 39.94096375 C-60.94113549 36.0652896 -60.95047403 32.19150736 -60.98873711 28.31593895 C-60.99614134 26.90257859 -60.98995377 25.48906985 -60.96898079 24.07584572 C-60.61797636 16.42593966 -60.61797636 16.42593966 -63.84765625 9.86686707 C-66.00288898 8.21072346 -66.00288898 8.21072346 -68.28515625 7.00978851 C-68.85105469 6.6765583 -69.41695312 6.34332809 -70 6 C-70 5.34 -70 4.68 -70 4 C-69.15574463 3.94839722 -69.15574463 3.94839722 -68.29443359 3.89575195 C-57.54459821 3.18924657 -47.84140789 2.26293439 -37.8125 -1.87890625 C-26.43492369 -6.41413458 -10.75943251 -5.58999833 0 0 Z M-30.21250916 25.53358459 C-32.67187812 28.92707079 -32.56839205 31.95704615 -32.53344727 35.99389648 C-32.54206284 36.79599548 -32.55067841 37.59809448 -32.55955505 38.42449951 C-32.58224195 41.07369334 -32.57547117 43.72183159 -32.56640625 46.37109375 C-32.57164092 48.21428238 -32.57791682 50.05746831 -32.58518982 51.90065002 C-32.59559924 55.76340338 -32.59102525 59.62578848 -32.57641602 63.48852539 C-32.55923359 68.43645516 -32.58271358 73.38322312 -32.61790562 78.33102322 C-32.6398772 82.13751406 -32.63843864 85.94372686 -32.6301403 89.75026131 C-32.62932053 91.57430355 -32.63618898 93.39836615 -32.65091133 95.22234917 C-32.66835194 97.77452633 -32.65382041 100.32461546 -32.63110352 102.87670898 C-32.64279572 103.62855972 -32.65448792 104.38041046 -32.66653442 105.15504456 C-32.59436754 109.14418186 -32.13982201 110.82927572 -29.57749939 113.957901 C-25.17416394 117.44657183 -21.48215907 117.18003585 -15.9375 117.25 C-14.70902344 117.27578125 -13.48054687 117.3015625 -12.21484375 117.328125 C-9.0587502 117.2729167 -9.0587502 117.2729167 -7.12890625 115.671875 C-4.86648381 112.32129783 -4.87368678 109.32311601 -4.87060547 105.40893555 C-4.86745331 104.25890549 -4.86430115 103.10887543 -4.86105347 101.92399597 C-4.8630777 100.67419449 -4.86510193 99.42439301 -4.8671875 98.13671875 C-4.86623077 96.83918167 -4.86527405 95.54164459 -4.86428833 94.20478821 C-4.86281112 91.44323548 -4.86496009 88.681715 -4.86962891 85.92016602 C-4.87412119 83.13238381 -4.87426307 80.34466672 -4.86962891 77.55688477 C-4.85448152 68.37040554 -4.9004824 59.1860867 -5 50 C-5.00793579 48.85597717 -5.01587158 47.71195435 -5.02404785 46.53326416 C-5.05381743 43.44406684 -5.11769295 40.35784785 -5.1953125 37.26953125 C-5.20053925 36.37570236 -5.20576599 35.48187347 -5.21115112 34.56095886 C-5.35636125 30.39754044 -5.42943885 28.63268285 -8.29614258 25.45385742 C-10.84615969 24.08271955 -12.2225258 23.48817399 -15.06640625 23.46875 C-16.1656543 23.46101563 -16.1656543 23.46101563 -17.28710938 23.453125 C-18.03798828 23.46859375 -18.78886719 23.4840625 -19.5625 23.5 C-20.31724609 23.48453125 -21.07199219 23.4690625 -21.84960938 23.453125 C-25.1494616 23.47638387 -27.46570226 23.62965542 -30.21250916 25.53358459 Z " fill="#000000" transform="translate(902,268)"/>
<path d="M0 0 C8.62896547 2.41443073 17.05833731 3.5756003 26 4 C26 4.66 26 5.32 26 6 C24.50390625 7.21875 24.50390625 7.21875 22.5625 8.5 C19.77468153 10.2865363 19.77468153 10.2865363 18 13 C17.90917308 14.39176557 17.88048472 15.7878333 17.88349915 17.18255615 C17.88298113 18.06880424 17.88246311 18.95505234 17.8819294 19.86815643 C17.88649084 20.85235817 17.89105228 21.83655991 17.89575195 22.85058594 C17.89661741 23.89831429 17.89748287 24.94604263 17.89837456 26.02552032 C17.90261197 29.59516454 17.91416879 33.16474765 17.92578125 36.734375 C17.93083967 39.31085131 17.93549184 41.88732844 17.93977356 44.46380615 C17.94849295 49.42161746 17.95952328 54.3794169 17.97262377 59.33721852 C17.99825146 69.10116997 18.0083968 78.86509072 18.01520324 88.62907124 C18.02764786 105.87886105 18.06730187 123.12841658 18.13210869 140.3780899 C18.16712957 149.85560446 18.19217216 159.33296366 18.19555664 168.81054688 C18.19859335 177.25210808 18.21896004 185.69341515 18.26052457 194.13487792 C18.28171841 198.55531575 18.29451887 202.97539263 18.28615379 207.39588165 C18.27863674 211.50412725 18.29433823 215.61162251 18.32806015 219.71973038 C18.33629213 221.22014021 18.33604478 222.72062471 18.32659721 224.22102737 C17.93111372 233.05549519 17.93111372 233.05549519 21.42793274 240.82025146 C22.70110603 241.89922699 22.70110603 241.89922699 24 243 C24.598125 243.61875 25.19625 244.2375 25.8125 244.875 C26.4003125 245.431875 26.4003125 245.431875 27 246 C25.98800537 245.98428955 25.98800537 245.98428955 24.95556641 245.96826172 C21.84541679 245.92622548 18.73532726 245.90052437 15.625 245.875 C14.03365234 245.84986328 14.03365234 245.84986328 12.41015625 245.82421875 C6.43274095 245.78754749 0.99267755 246.22097967 -4.83740234 247.53710938 C-19.93637771 250.76895147 -36.7439119 245.72201881 -50.10546875 238.9296875 C-57.93067722 235.08519436 -66.51182882 233.7214414 -75 232 C-71 229 -71 229 -68.8898592 227.66744041 C-66.84094651 226.17915893 -66.84094651 226.17915893 -66.50501537 223.98531532 C-66.50740373 223.20920088 -66.50979208 222.43308643 -66.51225281 221.63345337 C-66.5053049 220.73739946 -66.49835699 219.84134556 -66.49119854 218.9181385 C-66.50401269 217.9340444 -66.51682684 216.94995029 -66.5300293 215.93603516 C-66.52787572 214.8932736 -66.52572214 213.85051205 -66.5235033 212.77615166 C-66.52126296 209.28014906 -66.54776508 205.78495703 -66.57421875 202.2890625 C-66.57860974 199.80953201 -66.58130048 197.329998 -66.58239746 194.85046387 C-66.58990938 188.85430906 -66.61621074 182.85851347 -66.65212524 176.86248374 C-66.68080131 172.02322319 -66.70205219 167.1839846 -66.71792603 162.34466553 C-66.72018647 161.65941469 -66.72244691 160.97416384 -66.72477585 160.26814783 C-66.72933014 158.88055822 -66.73387122 157.49296856 -66.73839915 156.10537887 C-66.78053728 143.47796958 -66.84668583 130.8507859 -66.92273772 118.22354102 C-66.98759503 107.35852046 -67.02282252 96.49363205 -67.0411253 85.62842751 C-67.05666972 76.83425873 -67.08984834 68.04030719 -67.1401186 59.24626732 C-67.16890736 54.19434242 -67.19068806 49.14264868 -67.19418335 44.09063721 C-67.19829316 39.40214875 -67.22611215 34.71441779 -67.27311707 30.02616882 C-67.286177 28.32828658 -67.29078634 26.63031469 -67.28623962 24.93238831 C-67.28138691 22.63910931 -67.30696334 20.34816571 -67.34057617 18.05517578 C-67.35056892 16.14226242 -67.35056892 16.14226242 -67.36076355 14.19070435 C-67.71902396 10.8255621 -67.71902396 10.8255621 -70.42793274 8.66842651 C-71.27671494 8.11784576 -72.12549713 7.56726501 -73 7 C-74.0173873 6.01769502 -75.02596117 5.02530403 -76 4 C-75.04915527 3.89510254 -75.04915527 3.89510254 -74.07910156 3.78808594 C-58.39278327 2.17535868 -58.39278327 2.17535868 -43.3046875 -2.1328125 C-29.93782745 -7.16237679 -12.98707567 -4.86577768 0 0 Z M-38 26 C-38.58922242 28.58859645 -38.58922242 28.58859645 -38.48774719 31.4662323 C-38.49469101 32.57889969 -38.50163483 33.69156708 -38.50878906 34.83795166 C-38.495979 36.05569275 -38.48316895 37.27343384 -38.4699707 38.52807617 C-38.4721611 39.81545181 -38.4743515 41.10282745 -38.47660828 42.42921448 C-38.48204251 45.97368163 -38.46253621 49.51762817 -38.43850732 53.06200194 C-38.4170628 56.82137194 -38.41779708 60.58074275 -38.41581726 64.34016418 C-38.40935185 70.70171869 -38.38810576 77.06308239 -38.35668945 83.42456055 C-38.32497267 89.8526305 -38.3034073 96.28059618 -38.29516602 102.70874023 C-38.29416558 103.48805338 -38.29316515 104.26736652 -38.2921344 105.07029521 C-38.29017161 106.63914471 -38.2882277 108.20799424 -38.2863028 109.77684379 C-38.26428755 126.44058698 -38.17433151 143.1032981 -38.04451025 159.76652586 C-38.00874545 164.47163065 -37.98473106 169.17668569 -37.96624756 173.88189697 C-37.94212197 179.77109549 -37.89434682 185.65955868 -37.82503319 191.54839516 C-37.80391132 193.64967495 -37.7910117 195.75105595 -37.78695107 197.85243797 C-37.77977287 200.68670838 -37.74214749 203.51891838 -37.69604492 206.3527832 C-37.70096388 207.16735048 -37.70588284 207.98191776 -37.71095085 208.8211689 C-37.61019994 212.86758621 -37.18232349 214.77016676 -34.63569641 217.98039246 C-29.46793442 221.94020022 -22.25550971 222.47383934 -15.875 221.75 C-12.89402202 221.23116835 -12.89402202 221.23116835 -11 219 C-10.80039809 216.49266839 -10.72630434 214.095421 -10.73930359 211.58673096 C-10.73547804 210.81338055 -10.73165249 210.04003015 -10.72771102 209.24324489 C-10.7173473 206.63768113 -10.72137955 204.03233636 -10.7253418 201.42675781 C-10.72099707 199.56429845 -10.71581473 197.70184088 -10.70985413 195.83938599 C-10.69642425 190.7689953 -10.69589008 185.69867898 -10.69841743 180.62827396 C-10.69948486 176.39870435 -10.69460941 172.16914992 -10.689812 167.93958354 C-10.67870213 157.96036192 -10.67828713 147.98117794 -10.68432617 138.00195312 C-10.69036265 127.70346241 -10.67806661 117.40510843 -10.6567561 107.10664105 C-10.63914392 98.27090242 -10.63313831 89.43520732 -10.63639385 80.59945178 C-10.63820811 75.31975514 -10.63555657 70.04015594 -10.62167931 64.76047516 C-10.60911254 59.79302254 -10.61103423 54.8257829 -10.62409019 49.85833359 C-10.62645837 48.03543654 -10.62371267 46.21252456 -10.61546707 44.38964462 C-10.6050178 41.89991672 -10.61308552 39.41090574 -10.6257782 36.92120361 C-10.61840391 36.20076473 -10.61102963 35.48032584 -10.60343188 34.73805547 C-10.65292824 30.11875679 -11.48104144 26.8863009 -14 23 C-17.82040866 21.72653045 -21.45464226 21.73766194 -25.4375 21.6875 C-26.5831543 21.64399414 -26.5831543 21.64399414 -27.75195312 21.59960938 C-28.86280273 21.58704102 -28.86280273 21.58704102 -29.99609375 21.57421875 C-30.66825928 21.55963623 -31.3404248 21.54505371 -32.03295898 21.5300293 C-34.95841446 22.22898695 -36.10631106 23.70452849 -38 26 Z " fill="#000000" transform="translate(797,268)"/>
<path d="M0 0 C3.72815664 2.64380523 7.34099183 5.43638847 10.87695312 8.33251953 C14.62899074 11.34240882 18.16422699 13.13261069 22.60546875 14.84765625 C20.8089813 16.73869567 19.32066853 18.01187978 17.03340149 19.33078003 C13.3411854 23.15825462 13.90006743 26.73183897 13.94604492 31.86767578 C13.93556405 32.89190738 13.92508318 33.91613897 13.91428471 34.97140789 C13.88532557 38.39139549 13.89188043 41.81037888 13.8984375 45.23046875 C13.88523616 47.64891284 13.86987352 50.06734599 13.85247803 52.48576355 C13.81620437 58.30470071 13.80267904 64.12335981 13.79974043 69.94240218 C13.79521781 76.62425652 13.76288037 83.3058865 13.72900307 89.98764575 C13.65364804 105.084912 13.62652158 120.18204339 13.60995483 135.27948761 C13.6031008 140.7310909 13.59157372 146.18268223 13.58007812 151.63427734 C13.5391268 172.03889732 13.53756388 192.44309085 13.60546875 212.84765625 C14.77142578 213.29238281 14.77142578 213.29238281 15.9609375 213.74609375 C18.55297134 214.82578879 20.4392365 216.08257812 22.60546875 217.84765625 C17.85961159 218.28235596 13.11313238 218.70922393 8.3659668 219.12939453 C6.75705796 219.27284367 5.14832587 219.41829178 3.53979492 219.56591797 C-6.13979891 220.45273648 -15.66545075 221.08086914 -25.39453125 220.84765625 C-22.70611266 218.59519744 -20.7481125 216.96551667 -17.39453125 215.84765625 C-16.50602246 196.23436877 -16.11922283 176.63301244 -15.86230469 157.00372314 C-15.81094668 153.13395957 -15.75587401 149.26424874 -15.70117188 145.39453125 C-15.59545052 137.87895074 -15.49398544 130.36332279 -15.39453125 122.84765625 C-28.75953125 123.34265625 -28.75953125 123.34265625 -42.39453125 123.84765625 C-42.06453125 154.53765625 -41.73453125 185.22765625 -41.39453125 216.84765625 C-38.75453125 218.16765625 -36.11453125 219.48765625 -33.39453125 220.84765625 C-36.37594931 223.82907431 -39.88580721 223.54103342 -43.91015625 223.91796875 C-45.18303497 224.04690018 -45.18303497 224.04690018 -46.48162842 224.17843628 C-48.28014646 224.35894862 -50.07909716 224.53519293 -51.87841797 224.70751953 C-54.62045492 224.97034849 -57.36100148 225.24568127 -60.1015625 225.5234375 C-61.85018702 225.69735412 -63.59888299 225.87055419 -65.34765625 226.04296875 C-66.16349182 226.12418976 -66.97932739 226.20541077 -67.81988525 226.28909302 C-72.03025289 226.68966036 -76.15881651 226.93515698 -80.39453125 226.84765625 C-80.39453125 226.18765625 -80.39453125 225.52765625 -80.39453125 224.84765625 C-78.40122283 223.50433971 -76.40068259 222.17171613 -74.39453125 220.84765625 C-72.07654726 217.37068026 -72.13706587 216.01532956 -72.11605835 211.90962219 C-72.10489487 210.66752487 -72.09373138 209.42542755 -72.08222961 208.14569092 C-72.07986402 206.76550323 -72.07768848 205.38531521 -72.07568359 204.00512695 C-72.0663835 202.55235741 -72.0562147 201.0995932 -72.04524231 199.64683533 C-72.01783748 195.68578727 -72.00274547 191.72477509 -71.98981428 187.76365685 C-71.97411698 183.58093812 -71.94731459 179.39829012 -71.92178345 175.21562195 C-71.88019189 168.1513381 -71.84575951 161.08704998 -71.81640625 154.02270508 C-71.78658965 146.84721674 -71.7522641 139.67177497 -71.71191406 132.49633789 C-71.70700541 131.62303711 -71.70209676 130.74973633 -71.69703937 129.84997189 C-71.68218888 127.21964244 -71.66726675 124.58931341 -71.65234375 121.95898438 C-71.59441891 111.72016781 -71.54061401 101.48139265 -71.50750732 91.24246216 C-71.50482652 90.42687289 -71.50214572 89.61128362 -71.49938369 88.77097952 C-71.49540804 87.56046646 -71.49540804 87.56046646 -71.49135208 86.32549858 C-71.48872942 85.52755119 -71.48610677 84.7296038 -71.48340464 83.90747619 C-71.4782227 82.32386545 -71.47312493 80.74025444 -71.46811438 79.15664315 C-71.43971895 70.5247666 -71.38394559 61.89510541 -71.24607658 53.26412296 C-71.18472956 49.41722679 -71.13903096 45.57023502 -71.09523392 41.72310448 C-71.06006892 39.30458197 -70.99868986 36.88773553 -70.93588257 34.46980286 C-70.92010024 33.07908736 -70.90570922 31.688355 -70.89306641 30.29760742 C-70.8692691 29.15281418 -70.8454718 28.00802094 -70.82095337 26.82853699 C-71.58511109 22.85721399 -73.33744675 21.39669043 -76.39453125 18.84765625 C-78.56073669 17.5524563 -78.56073669 17.5524563 -80.39453125 16.84765625 C-77.87149482 15.16563197 -75.33508753 13.66602837 -72.70703125 12.16015625 C-69.29259993 10.1292861 -66.3188965 8.03378401 -63.39453125 5.34765625 C-45.44434339 -10.88275313 -20.4064094 -13.01615999 0 0 Z M-41.39453125 19.84765625 C-42.56561189 23.36089817 -42.52682483 26.51130683 -42.50805664 30.16479492 C-42.50820267 30.90650436 -42.50834869 31.64821381 -42.50849915 32.41239929 C-42.50780259 34.8635043 -42.50002222 37.31453327 -42.4921875 39.765625 C-42.49032241 41.46527566 -42.48889893 43.16492686 -42.48789978 44.86457825 C-42.4840818 49.33785486 -42.47425763 53.81109901 -42.4631958 58.28436279 C-42.45296624 62.84907594 -42.44839885 67.41379432 -42.44335938 71.97851562 C-42.43263474 80.9349101 -42.41556692 89.89128047 -42.39453125 98.84765625 C-33.33814447 98.99943927 -24.41870902 98.53803051 -15.39453125 97.84765625 C-15.32503684 87.8772309 -15.27172282 77.90686313 -15.23909473 67.93624496 C-15.22343528 63.30653075 -15.20219193 58.67698217 -15.16821289 54.04736328 C-15.13562937 49.5799522 -15.11768034 45.11270049 -15.10989952 40.64517975 C-15.1043542 38.94031515 -15.09352557 37.23545933 -15.07734108 35.53066254 C-15.0555799 33.14362197 -15.05256373 30.75724091 -15.05395508 28.37011719 C-15.04316925 27.66449142 -15.03238342 26.95886566 -15.02127075 26.2318573 C-15.04035775 23.20779238 -15.25239628 21.11166234 -16.69706726 18.42828369 C-22.17444008 13.32791877 -36.25820199 14.98896641 -41.39453125 19.84765625 Z " fill="#000000" transform="translate(301.39453125,272.15234375)"/>
<path d="M0 0 C3.11292096 2.27876431 6.18065666 4.59688101 9.2109375 6.984375 C12.02877784 9.02079743 14.8536971 10.53358154 18 12 C15.38485683 14.12038635 12.80362384 16.13091744 10 18 C9.52691748 21.04154405 9.52691748 21.04154405 9.58540344 24.69868469 C9.57719564 25.39515317 9.56898784 26.09162164 9.56053132 26.80919522 C9.53676374 29.15457566 9.53462819 31.49947788 9.5324707 33.8449707 C9.52022631 35.52186978 9.50677503 37.19876041 9.49220276 38.87564087 C9.45706914 43.43977103 9.4418803 48.00375648 9.43236566 52.56800485 C9.42579899 55.41808325 9.41545736 58.26812297 9.40386009 61.11818504 C9.36409295 71.05723833 9.34209419 80.99617543 9.33422852 90.93530273 C9.32635735 100.20597637 9.27712697 109.47582276 9.20916301 118.74623233 C9.1528871 126.69960178 9.12731677 134.65269582 9.12528104 142.60626286 C9.1234379 147.35919382 9.10871764 152.11125336 9.06246376 156.86397743 C9.01987514 161.33526967 9.01539837 165.80499123 9.04025841 170.27640152 C9.04284886 171.91753664 9.03175241 173.55875887 9.00598145 175.19969368 C8.49957459 183.72584198 8.49957459 183.72584198 11.84499168 191.10692406 C13.87967633 192.40012848 15.69961453 193.29898286 18 194 C15.37312689 196.00394571 12.70429992 197.88261556 9.9375 199.6875 C6.41815103 202.00497979 3.04881793 204.45958197 -0.3125 207 C-11.8327343 215.43416873 -22.65302736 219.39324844 -36.875 219.375 C-37.98689697 219.37556396 -39.09879395 219.37612793 -40.24438477 219.37670898 C-47.48337162 219.28092888 -53.97228463 218.46437127 -60.92114258 216.50244141 C-68.82742144 214.32160093 -76.84004787 214.19087607 -85 214 C-83.19030491 212.0950578 -81.77850286 210.88168458 -79.42793274 209.62609863 C-75.51098055 205.38944799 -76.2984834 200.80074433 -76.34057617 195.23242188 C-76.33010663 194.02316386 -76.31963709 192.81390585 -76.30885029 191.56800365 C-76.28494571 188.2342571 -76.28326683 184.90185709 -76.2911644 181.56812453 C-76.29420615 178.02902997 -76.26868119 174.49013586 -76.24645996 170.9511261 C-76.20820029 164.14524329 -76.1959327 157.33956436 -76.19326961 150.53358406 C-76.18939737 142.75105302 -76.16112036 134.96867428 -76.13116133 127.18620694 C-76.08471365 114.98402649 -76.05457845 102.78190033 -76.03814638 90.57964504 C-76.01998197 77.26696387 -75.95740911 63.95548607 -75.83531761 50.6432991 C-75.79285012 45.81817815 -75.7614689 40.99297833 -75.73160267 36.16776466 C-75.70944296 32.66491711 -75.68165468 29.16233932 -75.63973999 25.65966797 C-75.59929458 21.94610115 -75.58303084 18.23328575 -75.57421875 14.51953125 C-75.55677612 13.48137772 -75.5393335 12.44322418 -75.5213623 11.37361145 C-75.46494239 6.03739117 -75.46494239 6.03739117 -77.85473633 1.4206543 C-80.16203618 -0.10730494 -82.37723351 -1.1257445 -85 -2 C-81.47151426 -4.35232383 -79.74869119 -4.28349297 -75.5625 -4.4375 C-67.88299589 -4.88784129 -60.78052136 -6.34145177 -53.51171875 -8.86328125 C-34.83511079 -14.99199708 -15.97385259 -10.71187762 0 0 Z M-46 16 C-47.15953159 19.47859476 -47.13177626 22.19182285 -47.14044189 25.8636322 C-47.14341302 26.56574422 -47.14638414 27.26785624 -47.1494453 27.99124438 C-47.15813364 30.34956229 -47.15964064 32.70782945 -47.16113281 35.06616211 C-47.16576081 36.75467538 -47.17078544 38.44318761 -47.17617798 40.13169861 C-47.18930378 44.72255182 -47.19574702 49.3133904 -47.20018864 53.90425944 C-47.20311842 56.77090258 -47.20722299 59.6375417 -47.21169281 62.50418282 C-47.22536677 71.46896564 -47.23503454 80.43373932 -47.2388947 89.39853185 C-47.24337861 99.75550207 -47.26094236 110.11234051 -47.2898953 120.46927065 C-47.31148769 128.47017945 -47.32159763 136.4710511 -47.32293582 144.47198874 C-47.32398539 149.2530696 -47.32992564 154.03402658 -47.34775543 158.81507683 C-47.36419446 163.31058436 -47.36641201 167.80587432 -47.35761642 172.30140114 C-47.35684387 173.95260067 -47.36121743 175.6038117 -47.37107468 177.25498199 C-47.38373047 179.50671076 -47.37795284 181.75766143 -47.36749268 184.00938416 C-47.36895924 185.27018767 -47.3704258 186.53099119 -47.3719368 187.83000088 C-46.97181347 191.24023243 -46.43472803 192.62223752 -44 195 C-40.28849573 196.23716809 -36.97216253 196.05522743 -33.125 195.875 C-32.06345703 195.85953125 -32.06345703 195.85953125 -30.98046875 195.84375 C-27.27830151 195.66450168 -25.24228996 195.18821023 -22.29658604 192.89999485 C-19.42890278 189.27885175 -19.3739325 187.43881333 -19.37181091 182.8578949 C-19.36471653 182.14999048 -19.35762214 181.44208606 -19.35031277 180.71272999 C-19.33274344 178.34626048 -19.35082995 175.98143587 -19.36889648 173.61499023 C-19.36375725 171.91632337 -19.35647595 170.21766184 -19.34721375 168.51901245 C-19.32869325 163.90948211 -19.34164172 159.30052989 -19.36130404 154.69102359 C-19.37768387 149.86823266 -19.3688787 145.04547853 -19.36378479 140.22267151 C-19.35926352 132.12467202 -19.37513681 124.0269035 -19.40307617 115.92895508 C-19.43513904 106.56357159 -19.43510827 97.19860443 -19.4178614 87.83319134 C-19.40200488 78.82617557 -19.40872353 69.81931261 -19.42579842 60.81230354 C-19.43267506 56.9778239 -19.43163022 53.14346651 -19.42425346 49.30898857 C-19.41659947 44.79527837 -19.42868756 40.28204277 -19.45610237 35.76841354 C-19.46299622 34.11078233 -19.46307347 32.45310688 -19.45588684 30.79547691 C-19.44721423 28.53482661 -19.4631084 26.27564848 -19.4853363 24.01512146 C-19.48814322 22.74954123 -19.49095015 21.48396101 -19.49384212 20.18002987 C-20.08879667 16.44211861 -21.02478647 15.26161268 -24 13 C-26.03946751 12.41213039 -26.03946751 12.41213039 -28.1875 12.50390625 C-28.96867187 12.50326172 -29.74984375 12.50261719 -30.5546875 12.50195312 C-31.76511719 12.53192383 -31.76511719 12.53192383 -33 12.5625 C-33.80695313 12.55541016 -34.61390625 12.54832031 -35.4453125 12.54101562 C-41.34992154 12.59005282 -41.34992154 12.59005282 -46 16 Z " fill="#000000" transform="translate(417,275)"/>
<path d="M0 0 C2.8346956 2.08465941 5.60816031 4.24515862 8.32202148 6.48486328 C12.05751703 9.51146298 15.56094805 11.28795358 20 13 C18.23205273 14.95404698 16.66195132 16.20121946 14.375 17.5625 C11.88809625 18.77912906 11.88809625 18.77912906 11 21 C10.90584853 23.44720012 10.87251504 25.86554788 10.88406372 28.31283569 C10.88376502 29.07534657 10.88346632 29.83785745 10.88315856 30.62347472 C10.88351591 33.19220877 10.89120073 35.76086812 10.89892578 38.32958984 C10.90088379 40.16573553 10.90246694 42.00188164 10.90370178 43.83802795 C10.9098741 49.879024 10.92709737 55.91996759 10.9453125 61.9609375 C10.95110203 64.03797016 10.95686852 66.11500289 10.96261215 68.19203568 C10.98729337 76.82881851 11.01485929 85.46558389 11.04995918 94.10233116 C11.10022628 106.49443909 11.13359037 118.88632599 11.14324772 131.27853429 C11.15138336 139.98439087 11.17850236 148.69006251 11.21985424 157.39582407 C11.24407947 162.59948171 11.25991145 167.80285387 11.25558853 173.00657272 C11.25195958 177.90034713 11.27177371 182.79346324 11.30976677 187.68708611 C11.31962578 189.48499491 11.32093077 191.28297361 11.31313896 193.08089256 C11.3038048 195.53243142 11.3250228 197.98185601 11.35403442 200.43319702 C11.33904772 201.50508461 11.33904772 201.50508461 11.32375824 202.59862649 C11.40345217 206.3302073 11.70676311 207.71444007 14.4270916 210.36355019 C15.27615137 210.90357862 16.12521114 211.44360706 17 212 C18.0173873 212.98230498 19.02596117 213.97469597 20 215 C4.29989681 215.4580257 -11.35077771 214.10853572 -27 213 C-25.18827083 210.9975625 -23.96340674 209.98480786 -21.42793274 208.93217468 C-18.58665469 207.11229256 -18.58665469 207.11229256 -18.36076355 203.2224884 C-18.32847883 201.61453729 -18.32387904 200.00589359 -18.34057617 198.39770508 C-18.33009247 197.51944565 -18.31960876 196.64118622 -18.30880737 195.73631287 C-18.27998209 192.8303629 -18.28635758 189.92559899 -18.29296875 187.01953125 C-18.27985824 185.00598145 -18.26455601 182.99244483 -18.24714661 180.97892761 C-18.20720812 175.67702329 -18.19710045 170.37546231 -18.19311523 165.07342529 C-18.18380047 159.66407802 -18.14639736 154.2549339 -18.11132812 148.84570312 C-18.04666187 138.23043062 -18.0160912 127.61545741 -18 117 C-26.91 117 -35.82 117 -45 117 C-45.00486612 128.38775208 -44.98450327 139.77469174 -44.9197216 151.16226482 C-44.89064933 156.45001175 -44.87263571 161.7373147 -44.87988281 167.02514648 C-44.88647017 172.12831652 -44.86402464 177.23060878 -44.82144547 182.33359718 C-44.81030368 184.28040251 -44.80962374 186.22729674 -44.81957626 188.17410851 C-44.83173352 190.90179528 -44.80669844 193.62679645 -44.77294922 196.35424805 C-44.78517014 197.15913666 -44.79739105 197.96402527 -44.8099823 198.79330444 C-44.74390309 202.99437875 -44.74390309 202.99437875 -42.71832657 206.53861427 C-41.21903491 207.78640866 -39.61002353 208.89877771 -38 210 C-36.98319689 210.98290968 -35.97261781 211.97334787 -35 213 C-41.35402879 212.9077653 -47.70767424 212.80046437 -54.0612793 212.68261719 C-56.22332973 212.64430196 -58.38544447 212.6094536 -60.54760742 212.578125 C-63.65306604 212.53252983 -66.75808099 212.47452616 -69.86328125 212.4140625 C-70.83211746 212.40251129 -71.80095367 212.39096008 -72.79914856 212.37905884 C-73.6998558 212.35918915 -74.60056305 212.33931946 -75.52856445 212.31884766 C-76.32132278 212.30552399 -77.11408112 212.29220032 -77.93086243 212.2784729 C-80 212 -80 212 -83 210 C-82.43450943 209.84281494 -81.86901886 209.68562988 -81.28639221 209.52368164 C-78.4786035 208.35336632 -76.97776637 207.33924374 -75 205 C-73.70570546 199.18421529 -73.90610055 193.37152273 -73.96484375 187.4375 C-73.9540018 185.61236334 -73.93975672 183.78724419 -73.92236328 181.9621582 C-73.88588122 177.00729492 -73.90003537 172.05376362 -73.92539597 167.09887695 C-73.94564452 161.91483967 -73.92686789 156.73091675 -73.91430664 151.546875 C-73.89975022 142.84093742 -73.91893732 134.13554267 -73.95703125 125.4296875 C-74.00057072 115.36305237 -73.98646812 105.29771334 -73.94242001 95.23110962 C-73.90612087 86.58970034 -73.90099057 77.94868135 -73.92192936 69.30722046 C-73.93440466 64.14535271 -73.93605724 58.98409427 -73.90963745 53.82226562 C-73.88653298 48.9691397 -73.90254195 44.11768522 -73.9487915 39.26473999 C-73.95937343 37.48337582 -73.95632405 35.70187106 -73.93869019 33.92056274 C-73.43778056 24.79317147 -73.43778056 24.79317147 -76.84988403 16.81201172 C-78.89364483 15.51121394 -80.67271289 14.64689807 -83 14 C-81.66992076 11.33984152 -80.38734233 11.13886525 -77.6875 9.9375 C-73.41752452 7.88451036 -69.85458009 5.48130181 -66.125 2.5625 C-45.31543219 -13.48600988 -22.10215982 -14.26237598 0 0 Z M-45 18 C-45.3746353 20.59221385 -45.50823593 22.75309802 -45.45410156 25.33886719 C-45.45468567 26.07096909 -45.45526978 26.80307098 -45.45587158 27.55735779 C-45.45309052 29.97101686 -45.4219996 32.38343239 -45.390625 34.796875 C-45.38316264 36.47266973 -45.37746968 38.1484732 -45.37347412 39.82427979 C-45.3582173 44.23036889 -45.3189354 48.63592877 -45.2746582 53.04180908 C-45.23370635 57.53951864 -45.21546331 62.0373139 -45.1953125 66.53515625 C-45.15244074 75.35704052 -45.08209083 84.17839341 -45 93 C-36.09 93 -27.18 93 -18 93 C-17.88699015 83.43797595 -17.79527928 73.87639618 -17.74093914 64.31385517 C-17.7148571 59.87345358 -17.67948518 55.43353297 -17.62280273 50.9934082 C-17.56843221 46.70750904 -17.53856898 42.42207217 -17.52561378 38.13585472 C-17.51638285 36.50154531 -17.49835645 34.8672609 -17.47134972 33.23314857 C-17.43498985 30.94174377 -17.43005717 28.65224308 -17.43237305 26.3605957 C-17.42126999 25.05709671 -17.41016693 23.75359772 -17.39872742 22.41059875 C-18.15269046 18.13389385 -19.65600904 16.67514566 -23 14 C-25.12249937 13.26886298 -25.12249937 13.26886298 -27.28515625 13.37109375 C-28.06310547 13.36916016 -28.84105469 13.36722656 -29.64257812 13.36523438 C-30.84043945 13.40100586 -30.84043945 13.40100586 -32.0625 13.4375 C-33.26616211 13.42106445 -33.26616211 13.42106445 -34.49414062 13.40429688 C-39.55110341 13.46724662 -41.72761658 13.82652892 -45 18 Z " fill="#000000" transform="translate(582,274)"/>
<path d="M0 0 C15.51 0 31.02 0 47 0 C44 3 44 3 41.36265182 4.77885914 C38.75044871 6.82444573 38.75044871 6.82444573 38.29863358 9.99026775 C38.26528286 11.16110314 38.23193214 12.33193853 38.1975708 13.53825378 C38.17354415 14.19234134 38.1495175 14.84642889 38.12476277 15.52033728 C38.05506867 17.68053872 38.02436722 19.83883989 38 22 C37.98662566 22.72776272 37.97325132 23.45552544 37.9594717 24.20534158 C37.85529416 29.9330113 37.8421694 35.65946585 37.83886719 41.38793945 C37.83422708 43.28836155 37.82920086 45.18878273 37.82382202 47.08920288 C37.81082998 52.20192189 37.80428182 57.31462788 37.79981136 62.42736077 C37.79686539 65.6237119 37.79275832 68.82005956 37.78830719 72.01640892 C37.77468102 82.02552531 37.76498475 92.03463367 37.7611053 102.04375869 C37.75660508 113.58749304 37.73894651 125.13111013 37.7101047 136.6748088 C37.68853958 145.61604758 37.67840417 154.55725317 37.67706418 163.49851769 C37.6760145 168.83379316 37.67006938 174.16895765 37.65224457 179.5042057 C37.63584843 184.50709886 37.63356681 189.50979642 37.64238358 194.51270676 C37.64315791 196.35181258 37.63875951 198.19092862 37.62892532 200.03000832 C37.61632799 202.53137691 37.62201449 205.03203922 37.63250732 207.53340149 C37.62445092 208.26829703 37.61639452 209.00319257 37.60809398 209.76035768 C37.5947203 211.98691543 37.5947203 211.98691543 38 215 C43.1329771 218.42198473 49.39923145 216.65581008 55.2734375 215.5859375 C58.90154445 214.68273788 59.85367404 214.21948894 62 211 C62.36676292 208.35412825 62.36676292 208.35412825 62.41064453 205.33520508 C62.45053497 204.17422806 62.49042542 203.01325104 62.53152466 201.8170929 C62.56494965 200.56389755 62.59837463 199.31070221 62.6328125 198.01953125 C62.67437469 196.73640549 62.71593689 195.45327972 62.75875854 194.13127136 C62.86903285 190.72353487 62.96792362 187.3155595 63.06445312 183.90740967 C63.16500625 180.42829178 63.27631386 176.94951985 63.38671875 173.47070312 C63.60167668 166.64743552 63.80461136 159.82385524 64 153 C66.97858727 152.66062892 69.95769685 152.32837741 72.9375 152 C73.76830078 151.90460938 74.59910156 151.80921875 75.45507812 151.7109375 C81.00584043 151.10618519 86.416351 150.90985027 92 151 C92.00546844 152.32424736 92.00546844 152.32424736 92.01104736 153.67524719 C92.04889091 161.98916025 92.10570181 170.30267957 92.18390274 178.61631489 C92.2234371 182.8906287 92.25559607 187.16473467 92.27099609 191.43920898 C92.28612383 195.56322961 92.32049906 199.68667905 92.36830902 203.81044579 C92.38316317 205.38487983 92.39104332 206.95939541 92.39188385 208.53389931 C92.39424334 210.73716987 92.42123606 212.9388487 92.45410156 215.1418457 C92.46298401 216.39649124 92.47186646 217.65113678 92.48101807 218.94380188 C92.70482931 222.0739813 92.70482931 222.0739813 94.89349365 223.85441589 C96.91063304 224.95139945 98.91709917 226.0329389 101 227 C97.38179434 229.41213711 93.93604189 229.89407576 89.75 230.6875 C82.70653333 232.11897811 76.68527085 234.26846868 70.28222656 237.48950195 C64.67312302 240.2766106 59.12947645 241.83025259 53 243 C51.865625 243.226875 50.73125 243.45375 49.5625 243.6875 C42.39882203 244.3158928 35.41185487 244.59124406 28.37109375 242.99609375 C22.35940785 241.72064684 16.49698212 241.77829797 10.375 241.875 C9.27542969 241.88402344 8.17585938 241.89304687 7.04296875 241.90234375 C4.36174242 241.92565876 1.68099393 241.9583796 -1 242 C-0.236875 241.2575 0.52625 240.515 1.3125 239.75 C6.28447781 234.68786147 6.28447781 234.68786147 7.39872742 227.91009521 C7.41126777 226.87921154 7.42380812 225.84832787 7.43672848 224.78620529 C7.43457254 223.09330809 7.43457254 223.09330809 7.43237305 221.36621094 C7.44254487 220.16912128 7.45271669 218.97203163 7.46319675 217.73866653 C7.48826641 214.4326118 7.50000606 211.12700029 7.50602245 207.82088852 C7.51564434 204.29645798 7.54241681 200.77215426 7.56707764 197.24780273 C7.61192249 190.43639142 7.64079102 183.62500722 7.66319335 176.81348848 C7.68131923 171.33417119 7.70413567 165.8548941 7.73049927 160.37561035 C7.73421376 159.60115232 7.73792825 158.82669428 7.74175531 158.02876782 C7.74928282 156.46295637 7.75682299 154.89714497 7.76437581 153.33133364 C7.81317176 143.1469964 7.85802576 132.96265714 7.89207458 122.77825928 C7.94701931 106.54121569 8.03556596 90.30566898 8.20072937 74.0692749 C8.27472099 66.78827186 8.32898527 59.50718461 8.37523365 52.22595596 C8.40584327 47.54076108 8.44629369 42.85612813 8.5105896 38.17126465 C8.56920787 33.87010184 8.60033722 29.56967285 8.60889435 25.26812744 C8.61688876 23.73060057 8.63513631 22.19308507 8.66475677 20.65582275 C9.11788696 12.99693253 9.11788696 12.99693253 6.69241333 6.0123291 C4.65801436 4.26136918 2.38953164 3.19476582 0 2 C0 1.34 0 0.68 0 0 Z " fill="#000000" transform="translate(111,272)"/>
<path d="M0 0 C122.43 0 244.86 0 371 0 C369.34241652 8.28791742 364.26405243 13.4916865 357.5703125 18.4609375 C353.01868385 21.1863808 348.11148378 22.67215645 343 24 C342.32233267 24.1767221 341.64466534 24.35344419 340.94646263 24.53552151 C336.65046008 25.21274061 332.40254566 25.15371481 328.0597229 25.15821838 C327.04946686 25.16315636 326.03921082 25.16809434 324.99834096 25.17318195 C321.60517818 25.18856298 318.21203438 25.19692139 314.81884766 25.20532227 C312.3847436 25.21490503 309.9506412 25.22491534 307.51654053 25.23532104 C301.56776765 25.25962117 295.61899515 25.27936219 289.6702003 25.29707379 C282.66671924 25.31814432 275.66326138 25.34458599 268.65979974 25.37124526 C256.06601811 25.41901689 243.47222491 25.46218677 230.87841797 25.50268555 C218.84194783 25.54139831 206.80549175 25.5828106 194.76904297 25.62768555 C193.67211687 25.6317711 193.67211687 25.6317711 192.55303064 25.6359392 C189.60766512 25.6469118 186.66229963 25.65788949 183.71693416 25.66887531 C122.14460441 25.898202 60.57284426 26.0754716 -1 26 C-0.67 17.42 -0.34 8.84 0 0 Z " fill="#000000" transform="translate(564,118)"/>
<path d="M0 0 C122.43 0 244.86 0 371 0 C371.33 8.58 371.66 17.16 372 26 C309.86559865 26.04344388 247.73121403 25.9852725 185.59703064 25.81609344 C182.65811175 25.80815475 179.71919268 25.8002881 176.78027344 25.79248047 C176.05114656 25.79053918 175.32201967 25.7885979 174.57079804 25.78659779 C162.58426359 25.75510128 150.59774897 25.73843951 138.61118066 25.72680578 C126.12304644 25.71437617 113.63501102 25.68690979 101.14693928 25.64538693 C93.52958758 25.62050819 85.91239947 25.60686346 78.29500651 25.60857043 C72.50184247 25.60860382 66.70889916 25.58757249 60.91581345 25.55883217 C58.55805279 25.55036004 56.20025648 25.54856482 53.84248734 25.55419731 C21.00809603 25.62218673 21.00809603 25.62218673 8 14 C4.65976667 10.66674002 1.86239332 7.37145098 0 3 C0 2.01 0 1.02 0 0 Z " fill="#000000" transform="translate(0,118)"/>
<path d="M0 0 C1.47944092 -0.00894287 1.47944092 -0.00894287 2.98876953 -0.01806641 C9.91879062 0.09939158 16.03618099 1.40787083 22.625 3.5 C32.21003779 6.47629166 41.66634788 7.5687729 51.625 8.5 C50.8825 9.0775 50.14 9.655 49.375 10.25 C48.4675 10.9925 47.56 11.735 46.625 12.5 C45.91633789 13.04946289 45.20767578 13.59892578 44.47753906 14.16503906 C41.93144448 17.37416513 42.11901401 20.19126548 42.234375 24.109375 C42.24286469 25.19958954 42.24286469 25.19958954 42.25152588 26.31182861 C42.27385447 28.62523245 42.32403952 30.9370672 42.375 33.25 C42.39506977 34.82159216 42.41331971 36.39320868 42.4296875 37.96484375 C42.47370707 41.81049717 42.54270625 45.65498289 42.625 49.5 C41.965 49.5 41.305 49.5 40.625 49.5 C40.17060547 48.48679687 40.17060547 48.48679687 39.70703125 47.453125 C36.4407394 40.44745068 36.4407394 40.44745068 30.625 35.5 C27.30955701 34.39485234 24.42089889 34.17892369 20.9375 33.9375 C19.75800781 33.85371094 18.57851563 33.76992188 17.36328125 33.68359375 C16.00783203 33.59271484 16.00783203 33.59271484 14.625 33.5 C14.68549744 58.05626077 14.76297109 82.61241703 14.86071491 107.16855907 C14.90570116 118.57012699 14.94510931 129.97166348 14.97143555 141.37329102 C14.9943927 151.30969632 15.02776516 161.24600237 15.07370156 171.182329 C15.09766455 176.44467448 15.11637317 181.70692148 15.12261391 186.9693203 C15.12865083 191.92119155 15.14860026 196.87281073 15.17927551 201.82458878 C15.18807809 203.64304798 15.19177374 205.4615401 15.19000816 207.28001976 C15.18835941 209.76149129 15.20502019 212.24219077 15.22627258 214.72355652 C15.22142501 215.44438154 15.21657743 216.16520656 15.21158296 216.90787476 C15.27339272 221.27612249 15.93291879 224.03565264 18.625 227.5 C20.58874635 228.88617389 22.58412192 230.23012031 24.625 231.5 C24.625 231.83 24.625 232.16 24.625 232.5 C8.55880583 231.86867259 -7.39195373 230.18051218 -23.375 228.5 C-20.34052304 226.02746322 -18.18933013 225.02573205 -14.375 223.5 C-14.375 160.47 -14.375 97.44 -14.375 32.5 C-27.03897896 32.92434831 -27.03897896 32.92434831 -36.11328125 38.703125 C-38.30478177 41.82414741 -39.86478711 44.99630611 -41.375 48.5 C-41.705 48.5 -42.035 48.5 -42.375 48.5 C-42.36339844 47.49622314 -42.35179687 46.49244629 -42.33984375 45.45825195 C-42.30722234 41.72097726 -42.32720423 37.98548737 -42.36279297 34.24829102 C-42.37088609 32.6333906 -42.36485888 31.0183535 -42.34423828 29.40356445 C-41.83771859 20.28210913 -41.83771859 20.28210913 -45.22265625 12.30224609 C-47.26320561 11.02690274 -49.06520483 10.15341159 -51.375 9.5 C-47.39024932 7.30913045 -43.65243849 7.03503604 -39.1875 6.6875 C-32.84334437 6.11702372 -27.25423024 4.96657466 -21.25 2.875 C-14.16312965 0.51214508 -7.45217307 0.01491123 0 0 Z " fill="#000000" transform="translate(661.375,263.5)"/>
<path d="M0 0 C0.9170246 0.00037972 1.8340492 0.00075944 2.77886242 0.00115067 C3.83283893 -0.00084038 4.88681544 -0.00283143 5.97273064 -0.00488281 C7.14488418 -0.00196997 8.31703772 0.00094287 9.52471107 0.00394398 C10.75879831 0.00308955 11.99288555 0.00223513 13.26436937 0.00135481 C16.70540629 -0.00001343 20.14638703 0.00313427 23.58741719 0.00813287 C27.29227404 0.01243389 30.99712903 0.0109912 34.70198768 0.0102306 C41.12608515 0.00970514 47.5501725 0.01285421 53.97426742 0.01846844 C63.26253715 0.0265805 72.55080196 0.02919836 81.83907484 0.03045643 C96.90709548 0.03264741 111.97511072 0.03930875 127.04312843 0.04875904 C141.68407868 0.05793196 156.32502746 0.06501338 170.96597999 0.06926686 C171.86778993 0.06952958 172.76959988 0.0697923 173.69873739 0.07006299 C178.22265627 0.07136798 182.74657515 0.0726317 187.27049404 0.07387489 C224.8267894 0.08424895 262.38307861 0.10186852 299.93936867 0.1241985 C296.98006782 9.36252871 292.02234136 15.22548747 283.49796242 19.90935475 C275.28283869 23.80997074 267.28537423 25.24802619 258.2375254 25.67960316 C257.36378375 25.72175747 256.4900421 25.76391177 255.58982342 25.80734348 C244.11976765 26.30833972 232.64741785 26.25594463 221.16886085 26.23772389 C218.64377542 26.23744114 216.1186899 26.23760145 213.59360451 26.23816639 C208.20060045 26.23839235 202.8076121 26.23560056 197.41461128 26.22992855 C189.61764356 26.22173364 181.82068166 26.21919023 174.0237101 26.21794056 C161.36766325 26.21576247 148.71162292 26.20913638 136.0555796 26.19963795 C123.77563201 26.19043147 111.49568621 26.18336655 99.21573585 26.17913014 C98.45631945 26.17886741 97.69690306 26.17860469 96.91447404 26.17833401 C93.1039645 26.17702878 89.29345494 26.17576512 85.48294538 26.1745221 C53.96841507 26.16418824 22.45389287 26.14652875 -9.06063133 26.1241985 C-8.51414003 22.19117473 -7.96948927 18.36588422 -6.90438133 14.538261 C-6.57760399 13.3607024 -6.57760399 13.3607024 -6.24422508 12.15935475 C-6.01863915 11.36400318 -5.79305321 10.56865162 -5.56063133 9.7491985 C-5.3350454 8.93064381 -5.10945946 8.11208912 -4.87703758 7.26872975 C-2.88866031 0.17410551 -2.88866031 0.17410551 0 0 Z " fill="#000000" transform="translate(562.0606313347816,163.8758015036583)"/>
<path d="M0 0 C99.66 0 199.32 0 302 0 C305.70454545 11.11363636 305.70454545 11.11363636 307.1875 15.8125 C307.53167969 16.89144531 307.87585938 17.97039062 308.23046875 19.08203125 C309 22 309 22 309 26 C276.72754976 26.0228673 244.45510185 26.0405378 212.1826454 26.05106533 C208.36297452 26.05231587 204.54330366 26.05361021 200.72363281 26.05493164 C199.96328164 26.05519395 199.20293047 26.05545626 198.41953835 26.05572652 C186.14664688 26.06006467 173.87376014 26.06794192 161.60087147 26.0771528 C148.98531675 26.0865411 136.36976449 26.09206652 123.75420642 26.09408849 C115.98476393 26.09545302 108.21533484 26.09974508 100.44589648 26.10791647 C94.46423606 26.11388286 88.48258689 26.11444597 82.50092316 26.11310768 C80.06468626 26.11338048 77.62844881 26.11533826 75.19221497 26.11920547 C64.05460089 26.13600245 52.93441764 26.09809352 41.80731201 25.57102966 C41.00811757 25.53432885 40.20892313 25.49762804 39.38551068 25.45981508 C29.2264805 24.90781301 20.55358677 22.60224588 12 17 C11.113125 16.4225 10.22625 15.845 9.3125 15.25 C4.85581085 10.91376191 1.51014044 6.04056178 0 0 Z " fill="#000000" transform="translate(73,164)"/>
<path d="M0 0 C1.81900662 -0.03766627 3.63944872 -0.02580863 5.45813179 0.02513981 C6.46372867 0.01744999 7.46932554 0.00976016 8.50539505 0.00183731 C11.8740147 -0.01298472 15.2385965 0.036494 18.60684395 0.08570194 C21.0214904 0.08824069 23.4361438 0.08681545 25.85078621 0.0817194 C31.0485339 0.07967024 36.24536907 0.10518565 41.44283867 0.15585995 C48.95734747 0.22907714 56.47136494 0.25245001 63.98619176 0.26375187 C76.1788692 0.28343841 88.37100402 0.34330147 100.56338692 0.42847538 C112.40548174 0.5111161 124.24742906 0.57480706 136.0897541 0.61304569 C137.18511047 0.61659246 137.18511047 0.61659246 138.30259524 0.62021088 C141.96606797 0.63195641 145.62954173 0.64332974 149.2930162 0.65451801 C179.67421832 0.74778374 210.0547624 0.90694072 240.43545723 1.10743046 C239.07165458 8.68315936 234.2531573 14.00960309 228.34951973 18.79493046 C216.98943011 26.5847062 203.13110503 27.27419125 189.80493355 27.22768497 C188.88984068 27.2285394 187.9747478 27.22939382 187.03192484 27.23027414 C183.99502839 27.23190865 180.95818836 27.22644109 177.92129707 27.22095585 C175.73265776 27.22067351 173.54401836 27.22083262 171.3553791 27.22139835 C165.43466415 27.22168451 159.51396957 27.21581707 153.59325933 27.2088244 C147.39796967 27.20256069 141.2026795 27.20198467 135.00738716 27.20079899 C123.28503052 27.19769456 111.56268324 27.18949316 99.84033072 27.1794495 C86.49089811 27.1681801 73.14146545 27.16277095 59.79202914 27.15775406 C32.33983332 27.1473098 4.8876458 27.12972757 -22.56454277 27.10743046 C-19.41818335 22.36500277 -16.14003949 17.75926711 -12.75985527 13.18164921 C-10.61365029 10.32257549 -10.61365029 10.32257549 -9.39001644 7.87651306 C-6.92918548 3.46855689 -5.23791166 0.60685038 0 0 Z " fill="#000000" transform="translate(547.5645427703857,208.89256954193115)"/>
<path d="M0 0 C31.10930892 -0.20529805 62.21843878 -0.3645784 93.32826424 -0.45958797 C97.00074499 -0.47084437 100.67322439 -0.48249327 104.34570312 -0.49438477 C105.44239326 -0.49792596 105.44239326 -0.49792596 106.56123875 -0.50153869 C118.40083737 -0.5407046 130.24004283 -0.61166737 142.07940818 -0.69437516 C154.22704593 -0.77852895 166.37447773 -0.82852669 178.52239501 -0.84679645 C186.01904249 -0.85914822 193.5145788 -0.89816071 201.01088421 -0.9712482 C206.75842806 -1.02443223 212.50525943 -1.03009961 218.25300026 -1.01796913 C220.61133356 -1.02044867 222.96970824 -1.03839919 225.32779121 -1.07284927 C228.54585766 -1.11756385 231.7591512 -1.10690011 234.97732544 -1.08229065 C236.38103337 -1.12161401 236.38103337 -1.12161401 237.81309903 -1.16173178 C240.49308197 -1.10623722 242.49430537 -0.96103322 245 0 C247.5894019 2.72132959 249.24630088 5.70160122 251 9 C251.79099995 10.12763076 252.60538506 11.23946676 253.44921875 12.328125 C256.86563982 16.78795565 260.14366617 21.15861837 263 26 C234.29659269 26.04677873 205.59319113 26.08201762 176.88975334 26.10362434 C163.56141552 26.11392462 150.2331083 26.12796107 136.90478516 26.15087891 C125.2840416 26.17085102 113.66331522 26.18372551 102.04255497 26.18817699 C95.89292022 26.19077789 89.74333462 26.19686512 83.59371567 26.21146011 C77.79733492 26.22510441 72.00102327 26.22920885 66.20462799 26.22621536 C64.0851542 26.22676247 61.96567794 26.23069888 59.84621811 26.23841095 C21.42913622 26.37126115 21.42913622 26.37126115 8 14 C0 5.78619154 0 5.78619154 0 0 Z " fill="#000000" transform="translate(147,210)"/>
<path d="M0 0 C15.84 0 31.68 0 48 0 C45 3 45 3 42.375 4.5 C39.70243687 5.83729307 39.70243687 5.83729307 39 9 C38.90004212 11.59818962 38.85655808 14.1696561 38.85955811 16.76803589 C38.85658698 17.5674476 38.85361586 18.3668593 38.8505547 19.19049561 C38.84185992 21.87814691 38.84035881 24.56575371 38.83886719 27.25341797 C38.83423961 29.17675878 38.82921503 31.10009868 38.82382202 33.0234375 C38.81069128 38.25483334 38.80425189 43.48621635 38.79981136 48.71762609 C38.79688208 51.98428998 38.79277758 55.25095034 38.78830719 58.51761246 C38.77463127 68.73340936 38.76496474 78.94919823 38.7611053 89.16500366 C38.75662239 100.96691985 38.73906407 112.76872034 38.7101047 124.57060134 C38.68850847 133.68743976 38.67840214 142.80424558 38.67706418 151.92110932 C38.67601479 157.36899962 38.67007842 162.81678119 38.65224457 168.26464462 C38.6357992 173.38804067 38.63359117 178.51124582 38.64238358 183.63465881 C38.64315581 185.51603328 38.63878673 187.39741786 38.62892532 189.27876663 C38.6162598 191.84540563 38.62205301 194.41136297 38.63250732 196.97799683 C38.62445092 197.72401213 38.61639452 198.47002743 38.60809398 199.23864925 C38.65029242 203.66255071 39.22936174 206.509276 42 210 C45.06680799 211.82629794 45.06680799 211.82629794 48 213 C48 213.33 48 213.66 48 214 C32.16 214 16.32 214 0 214 C1.32 213.01 2.64 212.02 4 211 C7.52712019 208.1611163 8.85937939 206.82976761 9.62641239 202.30369473 C9.65250957 200.83896157 9.6512092 199.37358296 9.62818909 197.90879822 C9.63528347 197.09880499 9.64237786 196.28881176 9.64968723 195.45427328 C9.66727782 192.74238774 9.64915775 190.03193345 9.63110352 187.32006836 C9.6362419 185.37510017 9.64352256 183.43013663 9.65278625 181.48518372 C9.67131749 176.20421288 9.65835115 170.9237462 9.63869596 165.64279628 C9.6223248 160.11932574 9.63112011 154.59588752 9.63621521 149.07240295 C9.64073749 139.79745416 9.62485694 130.52270696 9.59692383 121.24780273 C9.56486197 110.51914627 9.56489093 99.79085322 9.5821386 89.06217092 C9.59799172 78.74701875 9.59127854 68.43200003 9.57420158 58.11685371 C9.56732244 53.72416197 9.56837237 49.33157692 9.57574654 44.93888664 C9.58339698 39.76857919 9.57132373 34.59868633 9.54389763 29.42844963 C9.53700005 27.52893301 9.53693047 25.62937777 9.54411316 23.72986221 C9.55277637 21.1408486 9.53690588 18.55312376 9.5146637 15.96421814 C9.52290446 15.20887234 9.53114523 14.45352654 9.53963572 13.67529148 C9.48494973 10.23706016 9.27966482 8.35964294 7.13970852 5.60770512 C4.8503073 3.88752593 2.47192595 2.4419568 0 1 C0 0.67 0 0.34 0 0 Z " fill="#000000" transform="translate(443,271)"/>
<path d="M0 0 C0 0.99 0 1.98 0 3 C-1.56616211 4.26757812 -1.56616211 4.26757812 -3.77734375 5.53125 C-4.9998584 6.244021 -4.9998584 6.244021 -6.24707031 6.97119141 C-7.13491211 7.47569824 -8.02275391 7.98020508 -8.9375 8.5 C-10.78659939 9.57825813 -12.63423345 10.65903268 -14.48046875 11.7421875 C-15.41165527 12.28713867 -16.3428418 12.83208984 -17.30224609 13.39355469 C-21.80542014 16.07508276 -26.1856863 18.93641514 -30.56225586 21.81835938 C-31.17593018 22.22119141 -31.78960449 22.62402344 -32.421875 23.0390625 C-33.07833008 23.49571289 -33.73478516 23.95236328 -34.41113281 24.42285156 C-36.61414821 25.76493751 -38.69510233 26.76303462 -41.04980469 27.78808594 C-45.57299147 29.9145586 -49.82906322 32.0354743 -53 36 C-55.43170428 42.93022588 -54.28995581 50.81308273 -53.75 58 C-52.34728324 78.64045578 -52.34728324 78.64045578 -56.54492188 83.63671875 C-59.4061592 86.35124595 -62.37048463 88.4109819 -66 90 C-68.02905273 89.92333984 -68.02905273 89.92333984 -70 89 C-70.92659424 88.56896973 -71.85318848 88.13793945 -72.80786133 87.69384766 C-76.17972687 85.52524697 -79.04101208 83.5318286 -81 80 C-82.25665481 73.92342263 -81.3343473 67.50627908 -80.88104248 61.37036133 C-79.648479 46.47266152 -79.648479 46.47266152 -84.04833984 32.67675781 C-89.46611496 27.60526525 -95.93132558 24.90381364 -102.8046875 22.30517578 C-107.73590396 20.29094265 -111.97350747 17.40275849 -116.375 14.4375 C-117.89600433 13.46289589 -119.42056978 12.49381932 -120.94921875 11.53125 C-121.98828369 10.87576172 -121.98828369 10.87576172 -123.04833984 10.20703125 C-126.46469366 8.09413992 -129.95643259 6.11070722 -133.48046875 4.18359375 C-133.98191406 3.79300781 -134.48335938 3.40242188 -135 3 C-135 2.01 -135 1.02 -135 0 C-89.8255314 -17.79217897 -44.94241065 -22.47120533 0 0 Z " fill="#000000" transform="translate(535,74)"/>
<path d="M0 0 C0.82975342 0.36053467 1.65950684 0.72106934 2.5144043 1.0925293 C26.49677861 11.73329047 44.96968161 25.99674622 58.4375 48.75 C59.10523438 49.87792969 59.77296875 51.00585938 60.4609375 52.16796875 C62.13564156 55.71752443 62.716486 58.67231407 63.0625 62.5625 C60.0625 63.5625 60.0625 63.5625 58.07421875 62.8828125 C53.62972955 60.5970752 49.38987056 58.16677135 45.22583008 55.39624023 C32.79418091 47.13954299 19.70198194 41.54449679 5.6328125 36.6401062 C4.30839864 36.1766459 2.98652107 35.70586426 1.66748047 35.22732544 C-6.5747646 32.25914846 -12.55540555 30.70182819 -20.9375 33.5625 C-21.79093994 33.81692871 -22.64437988 34.07135742 -23.52368164 34.33349609 C-41.62940774 39.8849743 -59.69477409 47.10434752 -75.05859375 58.33935547 C-78.98574907 61.17215279 -82.29090274 62.48025456 -86.9375 63.5625 C-87.2675 63.2325 -87.5975 62.9025 -87.9375 62.5625 C-87.65563273 49.59660563 -75.81199353 35.47371094 -67.1875 26.3125 C-54.82065931 14.71240343 -39.39178487 6.09713956 -23.875 -0.5 C-22.8399231 -0.9489563 -22.8399231 -0.9489563 -21.78393555 -1.40698242 C-13.68444158 -4.69940356 -7.77088357 -3.43379456 0 0 Z " fill="#000000" transform="translate(479.9375,3.4375)"/>
<path d="M0 0 C0.279851 10.28404822 0.49215607 20.56717 0.62174606 30.85427094 C0.68399271 35.63290768 0.76819322 40.40891291 0.90527344 45.18603516 C1.03708756 49.80935381 1.10769668 54.43016696 1.13852692 59.05522156 C1.1604517 60.80636503 1.20326242 62.55739387 1.26876068 64.30744934 C1.75403946 77.8297684 -1.54918514 85.38622518 -10.59740353 95.43778706 C-12.37925038 97.42240934 -14.02324578 99.50367435 -15.6640625 101.60546875 C-16.64827593 102.80175997 -17.63515253 103.99586636 -18.625 105.1875 C-24.71560929 112.60623976 -30.580364 120.17482605 -36.38183594 127.82128906 C-37.77297518 129.65354452 -39.16768529 131.4830419 -40.5625 133.3125 C-40.99264404 133.88250732 -41.42278809 134.45251465 -41.8659668 135.03979492 C-42.88705428 136.37819411 -43.94029707 137.69196264 -45 139 C-45.33 139 -45.66 139 -46 139 C-46.3487016 126.1870218 -46.61464067 113.37518498 -46.77718258 100.55841541 C-46.85522902 94.60567089 -46.96092861 88.65618887 -47.1315918 82.70532227 C-47.29549259 76.95376153 -47.38444306 71.20532175 -47.42315865 65.45160484 C-47.4507171 63.26526446 -47.50454092 61.079081 -47.58595085 58.89408302 C-48.22869656 40.91568453 -48.22869656 40.91568453 -42.82449341 34.90512085 C-39.76816349 32.04458732 -36.48260386 29.66185986 -32.98710823 27.36969566 C-29.58758987 25.02643852 -26.57310161 22.24841584 -23.5 19.5 C-22.26993183 18.43163023 -21.03836034 17.36498659 -19.8046875 16.30078125 C-17.11645484 13.97158855 -14.43550434 11.63427021 -11.7578125 9.29296875 C-11.06623047 8.6896875 -10.37464844 8.08640625 -9.66210938 7.46484375 C-8.32572785 6.29887329 -6.99103168 5.13096773 -5.65820312 3.9609375 C-1.1124622 0 -1.1124622 0 0 0 Z " fill="#000000" transform="translate(543,97)"/>
<path d="M0 0 C1.27167386 0.94257391 2.5417988 1.88723776 3.8112793 2.83276367 C4.87248238 3.62151131 4.87248238 3.62151131 5.9551239 4.42619324 C8.74367664 6.57235904 11.25273116 8.89593501 13.8125 11.3125 C18.47155162 15.66366195 23.28862602 19.73351441 28.2578125 23.73046875 C32.16392751 26.96330753 35.87273828 30.38707675 39.58984375 33.8359375 C41.80834498 36.02556668 41.80834498 36.02556668 44.12225342 37.04023743 C47.25823171 40.31318861 46.52183708 44.16683372 46.45410156 48.52026367 C46.45468567 49.49605881 46.45526978 50.47185394 46.45587158 51.47721863 C46.45308122 54.7078285 46.4219436 57.93751974 46.390625 61.16796875 C46.38316602 63.40570064 46.37747147 65.64343906 46.37347412 67.88117981 C46.35819093 73.77503447 46.3188856 79.66849575 46.2746582 85.56219482 C46.2337636 91.5746122 46.21547551 97.58709305 46.1953125 103.59960938 C46.15239425 115.39991256 46.08411018 127.19992359 46 139 C42.40227474 135.45161497 39.14415434 131.81169954 36.0625 127.8125 C35.59650391 127.21373047 35.13050781 126.61496094 34.65039062 125.99804688 C33.636673 124.69469564 32.62452379 123.39012333 31.61376953 122.08447266 C29.34302672 119.15140123 27.06449756 116.22440761 24.78662109 113.296875 C23.59490924 111.76481363 22.40382898 110.23226077 21.21337891 108.69921875 C18.43326255 105.12007749 15.64746521 101.54590201 12.83984375 97.98828125 C12.10217773 97.05338867 12.10217773 97.05338867 11.34960938 96.09960938 C10.44741883 94.95783295 9.54390358 93.81710119 8.63867188 92.67773438 C7.41385144 91.12784312 6.20681411 89.56395259 5 88 C4.56822858 87.48984061 4.13645716 86.97968122 3.69160175 86.45406246 C0.15782324 82.03301394 -0.70653794 78.42812173 -0.56762695 72.76977539 C-0.56835709 71.97871399 -0.56908722 71.18765259 -0.56983948 70.37261963 C-0.56637986 67.7802465 -0.52759898 65.18971206 -0.48828125 62.59765625 C-0.47894727 60.79163087 -0.47183392 58.98559277 -0.46684265 57.17955017 C-0.44781882 52.44294837 -0.39875834 47.70712212 -0.34332275 42.9708252 C-0.29203025 38.13104746 -0.26930731 33.2911435 -0.24414062 28.45117188 C-0.1906347 18.96710854 -0.10537832 9.48361895 0 0 Z " fill="#000000" transform="translate(392,97)"/>
</svg>
